#!OML:ASF H:\Punching\Project 1\Capture day 1\Session 1\female.ASF
:FULLY-SPECIFIED
:DEGREES
1448
root -0.245579 14.729 1.0053 13.2827 -2.22005 -1.69342
lowerback 3.87595 5.96514 2.39341
upperback -3.9802 8.12506 -0.689551
thorax -5.87035 3.9075 -2.7352
lowerneck -8.90564 -2.62525 9.29341
upperneck 33.781 -7.3797 4.81308
head 12.715 -1.41223 -0.693267
rclavicle -3.96824e-014 3.97569e-015
rhumerus 22.4394 10.6902 -79.6833
rradius 96.9378
rwrist -44.1015
rhand -20.7663 -22.3541
rfingers 7.12502
rthumb 5.60001 -52.2601
lclavicle -3.96824e-014 3.97569e-015
lhumerus 26.0516 -34.7007 77.6798
lradius 132.402
lwrist 16.9639
lhand -19.5283 8.81304
lfingers 7.12502
lthumb 6.79521 38.684
rfemur 6.03203 -8.48162 9.27739
rtibia 16.3576
rfoot -20.1836 -26.7919
rtoes -18.0521
lfemur -47.6907 -0.744602 -5.8018
ltibia 41.041
lfoot -3.69975 8.47497
ltoes -4.19346
1449
root -0.22537 14.7606 1.01536 13.2824 -4.47402 -2.01755
lowerback 3.85036 5.76555 2.13921
upperback -3.94177 7.83518 -0.740713
thorax -5.85713 3.77387 -2.62384
lowerneck -8.63509 -1.98475 10.0817
upperneck 33.6571 -6.48133 4.43166
head 12.5912 -0.996617 -0.857841
rclavicle -1.21756e-015 5.36719e-015
rhumerus 19.8042 12.3787 -80.3611
rradius 101.81
rwrist -44.6825
rhand -19.8124 -20.9172
rfingers 7.12502
rthumb 6.52088 -50.7968
lclavicle -1.21756e-015 5.36719e-015
lhumerus 25.9944 -34.3029 77.4295
lradius 132.599
lwrist 17.5745
lhand -19.5874 8.82127
lfingers 7.12502
lthumb 6.73816 38.6941
rfemur 5.2176 -7.68319 8.9852
rtibia 16.384
rfoot -19.543 -25.8463
rtoes -18.3407
lfemur -46.6987 0.0495168 -5.27914
ltibia 41.1238
lfoot -4.25124 9.76164
ltoes -3.62843
1450
root -0.203919 14.7927 1.02737 13.2669 -6.79466 -2.25627
lowerback 3.86266 5.56486 1.82487
upperback -3.90665 7.53815 -0.842641
thorax -5.86828 3.63732 -2.53551
lowerneck -8.36054 -1.35062 10.8748
upperneck 33.5228 -5.59183 4.05248
head 12.4769 -0.583398 -1.02538
rclavicle 5.11125e-014 7.95139e-016
rhumerus 17.0953 13.9435 -81.0789
rradius 106.399
rwrist -44.9941
rhand -18.7182 -19.3809
rfingers 7.12502
rthumb 7.57719 -49.2252
lclavicle 5.11125e-014 7.95139e-016
lhumerus 26.0063 -33.9397 77.0846
lradius 132.78
lwrist 18.106
lhand -19.6274 8.86949
lfingers 7.12502
lthumb 6.69955 38.7435
rfemur 4.40974 -6.83989 8.57988
rtibia 16.4024
rfoot -18.9071 -24.8521
rtoes -18.6456
lfemur -45.6008 0.868019 -4.89233
ltibia 41.1465
lfoot -4.8147 11.0274
ltoes -3.06021
1451
root -0.181862 14.8249 1.04114 13.2207 -9.15346 -2.39465
lowerback 3.92465 5.36352 1.44365
upperback -3.87991 7.23338 -1.00331
thorax -5.91568 3.49746 -2.47578
lowerneck -8.08297 -0.728535 11.6783
upperneck 33.3687 -4.72243 3.68601
head 12.3682 -0.176105 -1.19363
rclavicle -1.85491e-014 -9.98893e-015
rhumerus 14.3603 15.3423 -81.8205
rradius 110.674
rwrist -45.1026
rhand -17.4383 -17.8399
rfingers 7.12502
rthumb 8.81237 -47.6359
lclavicle -1.85491e-014 -9.98893e-015
lhumerus 26.0742 -33.6109 76.6619
lradius 132.937
lwrist 18.534
lhand -19.6496 8.94845
lfingers 7.12502
lthumb 6.67807 38.8231
rfemur 3.6026 -5.9756 8.05207
rtibia 16.4465
rfoot -18.2849 -23.8134
rtoes -19.001
lfemur -44.4035 1.69162 -4.65434
ltibia 41.095
lfoot -5.38063 12.269
ltoes -2.48202
1452
root -0.159568 14.8564 1.05575 13.131 -11.5192 -2.43112
lowerback 4.03625 5.15801 0.997322
upperback -3.853 6.91553 -1.21327
thorax -5.9915 3.35215 -2.43417
lowerneck -7.81506 -0.119012 12.4673
upperneck 33.1833 -3.87252 3.34248
head 12.2626 0.223166 -1.35409
rclavicle 5.24295e-015 3.18055e-015
rhumerus 11.6795 16.5525 -82.5576
rradius 114.608
rwrist -45.0714
rhand -15.9679 -16.4195
rfingers 7.12502
rthumb 10.2311 -46.1507
lclavicle 5.24295e-015 3.18055e-015
lhumerus 26.2062 -33.292 76.173
lradius 133.076
lwrist 18.8632
lhand -19.6796 9.05776
lfingers 7.12502
lthumb 6.64915 38.9334
rfemur 2.79156 -5.09915 7.41039
rtibia 16.5387
rfoot -17.6976 -22.7465
rtoes -19.3877
lfemur -43.1252 2.50143 -4.5606
ltibia 40.9639
lfoot -5.94398 13.4882
ltoes -1.8611
